<svg width="174" height="45" viewBox="0 0 174 45" fill="none" xmlns="http://www.w3.org/2000/svg">
<rect width="45" height="45" rx="22.5" fill="#EF6CE2"/>
<path d="M32.3612 22.0755L16.3445 13.814V30.3369L32.3612 22.0755ZM34.5468 20.3677C34.8852 20.54 35.1663 20.7886 35.3619 21.0885C35.5574 21.3884 35.6604 21.7289 35.6604 22.0755C35.6604 22.4221 35.5574 22.7626 35.3619 23.0625C35.1663 23.3624 34.8852 23.611 34.5468 23.7832L16.9875 32.8421C15.5525 33.5831 13.5849 32.7366 13.5849 31.1344V13.0166C13.5849 11.4143 15.5525 10.5678 16.9875 11.3088L34.5468 20.3677Z" fill="white"/>
<path d="M76.92 13.248V30H73.56V19.104L69.072 30H66.528L62.016 19.104V30H58.656V13.248H62.472L67.8 25.704L73.128 13.248H76.92ZM79.3779 23.304C79.3779 21.96 79.6419 20.768 80.1699 19.728C80.7139 18.688 81.4419 17.888 82.3539 17.328C83.2819 16.768 84.3139 16.488 85.4499 16.488C86.4419 16.488 87.3059 16.688 88.0419 17.088C88.7939 17.488 89.3939 17.992 89.8419 18.6V16.704H93.2259V30H89.8419V28.056C89.4099 28.68 88.8099 29.2 88.0419 29.616C87.2899 30.016 86.4179 30.216 85.4259 30.216C84.3059 30.216 83.2819 29.928 82.3539 29.352C81.4419 28.776 80.7139 27.968 80.1699 26.928C79.6419 25.872 79.3779 24.664 79.3779 23.304ZM89.8419 23.352C89.8419 22.536 89.6819 21.84 89.3619 21.264C89.0419 20.672 88.6099 20.224 88.0659 19.92C87.5219 19.6 86.9379 19.44 86.3139 19.44C85.6899 19.44 85.1139 19.592 84.5859 19.896C84.0579 20.2 83.6259 20.648 83.2899 21.24C82.9699 21.816 82.8099 22.504 82.8099 23.304C82.8099 24.104 82.9699 24.808 83.2899 25.416C83.6259 26.008 84.0579 26.464 84.5859 26.784C85.1299 27.104 85.7059 27.264 86.3139 27.264C86.9379 27.264 87.5219 27.112 88.0659 26.808C88.6099 26.488 89.0419 26.04 89.3619 25.464C89.6819 24.872 89.8419 24.168 89.8419 23.352ZM103.876 16.512C105.46 16.512 106.74 17.016 107.716 18.024C108.692 19.016 109.18 20.408 109.18 22.2V30H105.82V22.656C105.82 21.6 105.556 20.792 105.028 20.232C104.5 19.656 103.78 19.368 102.868 19.368C101.94 19.368 101.204 19.656 100.66 20.232C100.132 20.792 99.8676 21.6 99.8676 22.656V30H96.5076V16.704H99.8676V18.36C100.316 17.784 100.884 17.336 101.572 17.016C102.276 16.68 103.044 16.512 103.876 16.512ZM114.079 15.12C113.487 15.12 112.991 14.936 112.591 14.568C112.207 14.184 112.015 13.712 112.015 13.152C112.015 12.592 112.207 12.128 112.591 11.76C112.991 11.376 113.487 11.184 114.079 11.184C114.671 11.184 115.159 11.376 115.543 11.76C115.943 12.128 116.143 12.592 116.143 13.152C116.143 13.712 115.943 14.184 115.543 14.568C115.159 14.936 114.671 15.12 114.079 15.12ZM115.735 16.704V30H112.375V16.704H115.735ZM131.27 18.432C131.27 19.328 131.054 20.168 130.622 20.952C130.206 21.736 129.542 22.368 128.63 22.848C127.734 23.328 126.598 23.568 125.222 23.568H122.414V30H119.054V13.248H125.222C126.518 13.248 127.622 13.472 128.534 13.92C129.446 14.368 130.126 14.984 130.574 15.768C131.038 16.552 131.27 17.44 131.27 18.432ZM125.078 20.856C126.006 20.856 126.694 20.648 127.142 20.232C127.59 19.8 127.814 19.2 127.814 18.432C127.814 16.8 126.902 15.984 125.078 15.984H122.414V20.856H125.078ZM137.016 12.24V30H133.656V12.24H137.016ZM139.472 23.304C139.472 21.96 139.736 20.768 140.264 19.728C140.808 18.688 141.536 17.888 142.448 17.328C143.376 16.768 144.408 16.488 145.544 16.488C146.536 16.488 147.4 16.688 148.136 17.088C148.888 17.488 149.488 17.992 149.936 18.6V16.704H153.32V30H149.936V28.056C149.504 28.68 148.904 29.2 148.136 29.616C147.384 30.016 146.512 30.216 145.52 30.216C144.4 30.216 143.376 29.928 142.448 29.352C141.536 28.776 140.808 27.968 140.264 26.928C139.736 25.872 139.472 24.664 139.472 23.304ZM149.936 23.352C149.936 22.536 149.776 21.84 149.456 21.264C149.136 20.672 148.704 20.224 148.16 19.92C147.616 19.6 147.032 19.44 146.408 19.44C145.784 19.44 145.208 19.592 144.68 19.896C144.152 20.2 143.72 20.648 143.384 21.24C143.064 21.816 142.904 22.504 142.904 23.304C142.904 24.104 143.064 24.808 143.384 25.416C143.72 26.008 144.152 26.464 144.68 26.784C145.224 27.104 145.8 27.264 146.408 27.264C147.032 27.264 147.616 27.112 148.16 26.808C148.704 26.488 149.136 26.04 149.456 25.464C149.776 24.872 149.936 24.168 149.936 23.352ZM169.321 16.704L161.089 36.288H157.513L160.393 29.664L155.065 16.704H158.833L162.265 25.992L165.745 16.704H169.321Z" fill="#494849"/>
</svg>
